<?xml version="1.0" standalone="no"?>
<!DOCTYPE svg PUBLIC "-//W3C//DTD SVG 20010904//EN"
 "http://www.w3.org/TR/2001/REC-SVG-20010904/DTD/svg10.dtd">
<svg version="1.0" xmlns="http://www.w3.org/2000/svg"
 width="30.720000pt" height="30.720000pt" viewBox="0 0 30.720000 30.720000"
 preserveAspectRatio="xMidYMid meet">
<metadata>
Created by potrace 1.16, written by Peter Selinger 2001-2019
</metadata>
<g transform="translate(0.000000,30.720000) scale(0.006000,-0.006000)"
fill="#000000" stroke="none">
<path d="M1190 4795 c-117 -53 -167 -195 -109 -311 25 -51 -64 21 2206 -1779
l189 -150 -1185 -940 c-1061 -842 -1188 -946 -1210 -988 -59 -116 -7 -262 111
-311 47 -20 128 -20 173 -2 28 12 2544 1998 2628 2075 47 42 67 92 67 163 0
126 97 40 -1340 1181 -712 565 -1310 1037 -1328 1049 -45 28 -153 35 -202 13z"/>
</g>
</svg>
