<?xml version="1.0" standalone="no"?>
<!DOCTYPE svg PUBLIC "-//W3C//DTD SVG 20010904//EN"
 "http://www.w3.org/TR/2001/REC-SVG-20010904/DTD/svg10.dtd">
<svg version="1.0" xmlns="http://www.w3.org/2000/svg"
 width="30.720000pt" height="30.720000pt" viewBox="0 0 30.720000 30.720000"
 preserveAspectRatio="xMidYMid meet">
<metadata>
Created by potrace 1.16, written by Peter Selinger 2001-2019
</metadata>
<g transform="translate(0.000000,30.720000) scale(0.006000,-0.006000)"
fill="#000000" stroke="none">
<path d="M3752 4778 c-41 -23 -2605 -2052 -2634 -2086 -34 -38 -50 -87 -50
-147 0 -79 25 -129 94 -187 196 -165 2575 -2042 2603 -2054 105 -44 233 5 287
110 30 58 23 168 -14 222 -17 26 -430 360 -1205 974 l-1179 935 50 40 c28 23
560 445 1183 939 766 607 1140 909 1155 934 33 53 38 164 10 218 -57 112 -196
158 -300 102z"/>
</g>
</svg>
